HIERARCHY
ROOT Hips
{
 OFFSET 0.000000 0.000000 0.000000
 CHANNELS 6 Xposition Yposition Zposition Yrotation Xrotation Zrotation
 JOINT Chest
 {
  OFFSET 0.000000 9.857222 0.000240
  CHANNELS 3 Yrotation Xrotation Zrotation
  JOINT Chest2
  {
   OFFSET 0.000000 10.876940 -0.000436
   CHANNELS 3 Yrotation Xrotation Zrotation
   JOINT Chest3
   {
    OFFSET 0.000000 9.827798 0.000000
    CHANNELS 3 Yrotation Xrotation Zrotation
    JOINT Chest4
    {
     OFFSET 0.000000 9.827798 0.000000
     CHANNELS 3 Yrotation Xrotation Zrotation
     JOINT Neck
     {
      OFFSET 0.000000 13.831992 0.000000
      CHANNELS 3 Yrotation Xrotation Zrotation
      JOINT Head
      {
       OFFSET 0.000000 9.147643 -0.001036
       CHANNELS 3 Yrotation Xrotation Zrotation
       End Site
       {
        OFFSET 0.000000 17.515799 -0.000541
       }
      }
     }
     JOINT RightCollar
     {
      OFFSET -3.001579 7.717577 0.000000
      CHANNELS 3 Yrotation Xrotation Zrotation
      JOINT RightShoulder
      {
       OFFSET -14.002642 0.000000 0.000000
       CHANNELS 3 Yrotation Xrotation Zrotation
       JOINT RightElbow
       {
        OFFSET -30.053852 0.000000 0.000000
        CHANNELS 3 Yrotation Xrotation Zrotation
        JOINT RightWrist
        {
         OFFSET -24.564923 0.000000 -0.000000
         CHANNELS 3 Yrotation Xrotation Zrotation
         End Site
         {
          OFFSET -18.334355 0.000000 0.000000
         }
        }
       }
      }
     }
     JOINT LeftCollar
     {
      OFFSET 3.001579 7.717577 0.000000
      CHANNELS 3 Yrotation Xrotation Zrotation
      JOINT LeftShoulder
      {
       OFFSET 14.002642 0.000000 0.000000
       CHANNELS 3 Yrotation Xrotation Zrotation
       JOINT LeftElbow
       {
        OFFSET 30.053852 0.000000 0.000000
        CHANNELS 3 Yrotation Xrotation Zrotation
        JOINT LeftWrist
        {
         OFFSET 24.564923 0.000000 -0.000000
         CHANNELS 3 Yrotation Xrotation Zrotation
         End Site
         {
          OFFSET 18.334355 0.000000 0.000000
         }
        }
       }
      }
     }
    }
   }
  }
 }
 JOINT RightHip
 {
  OFFSET -8.003235 -0.001175 -0.000120
  CHANNELS 3 Yrotation Xrotation Zrotation
  JOINT RightKnee
  {
   OFFSET 0.000000 -41.759727 0.000113
   CHANNELS 3 Yrotation Xrotation Zrotation
   JOINT RightAnkle
   {
    OFFSET 0.000000 -40.728748 0.000159
    CHANNELS 3 Yrotation Xrotation Zrotation
    JOINT RightToe
    {
     OFFSET 0.000000 -6.515296 14.732841
     CHANNELS 3 Yrotation Xrotation Zrotation
     End Site
     {
      OFFSET 0.000000 -1.502839 6.412115
     }
    }
   }
  }
 }
 JOINT LeftHip
 {
  OFFSET 8.003235 -0.001175 -0.000120
  CHANNELS 3 Yrotation Xrotation Zrotation
  JOINT LeftKnee
  {
   OFFSET 0.000000 -41.759727 0.000113
   CHANNELS 3 Yrotation Xrotation Zrotation
   JOINT LeftAnkle
   {
    OFFSET 0.000000 -40.728748 0.000159
    CHANNELS 3 Yrotation Xrotation Zrotation
    JOINT LeftToe
    {
     OFFSET 0.000000 -6.515296 14.732841
     CHANNELS 3 Yrotation Xrotation Zrotation
     End Site
     {
      OFFSET 0.000000 -1.502839 6.412115
     }
    }
   }
  }
 }
}
MOTION
Frames: 12
Frame Time: 0.016667
38.881942 84.702703 5.510922 56.243758 26.814355 -3.083262 0.151920 -3.640134 1.950192 0.074595 -1.629146 0.668816 0.074595 -1.629146 0.668816 0.057726 -1.221779 0.501777 -1.693375 6.430066 0.271580 -3.548941 -24.212815 1.456234 2.152642 5.317972 5.367833 5.081996 21.560979 16.455166 87.849740 53.656968 -26.726596 -10.287729 -1.855087 -79.193841 -17.570827 11.399549 -14.625627 5.613275 20.726762 -22.740207 -64.696962 47.000428 81.016043 26.354500 19.465208 49.279608 -0.504718 -7.117337 0.982554 -5.216883 5.858310 -8.420392 0.149417 -18.382635 3.390316 -2.119173 -6.283524 8.218825 -12.920784 2.769642 12.516962 10.562984 -0.396331 -21.071349 -4.124967 -19.871256 2.143350 1.850673 -0.537271 0.981192
38.907674 84.701049 5.509175 56.312316 27.072610 -3.021869 0.136431 -3.631084 1.953844 0.051689 -1.640171 0.665084 0.051689 -1.640171 0.665084 0.040549 -1.230074 0.498918 -1.709818 6.314242 0.279604 -3.591120 -24.427023 1.486282 2.035275 5.187541 5.381361 4.669704 21.580281 16.147252 88.579289 53.616056 -26.300238 -10.321150 -1.862703 -79.418432 -17.349431 11.335961 -14.624913 5.685162 20.595303 -22.694939 -65.261529 47.182590 80.792294 26.408368 19.618992 49.381195 -0.461531 -7.381243 0.962048 -5.272100 5.913953 -8.483244 0.076894 -18.400172 3.395280 -2.110634 -6.303468 8.262447 -12.815566 2.525440 12.573488 10.428128 -0.436258 -21.120918 -4.170563 -19.889931 2.079385 1.879881 -0.526483 1.014154
38.926485 84.697923 5.505999 56.418602 27.246837 -2.929546 0.119674 -3.573364 1.921268 0.040907 -1.638230 0.653087 0.040907 -1.638230 0.653087 0.032429 -1.228631 0.489892 -1.752617 6.218747 0.303456 -3.694228 -24.602031 1.561708 1.845748 5.085577 5.433718 4.386625 21.429832 15.849892 89.233831 53.547747 -25.856544 -10.344017 -1.861976 -79.547466 -17.269988 11.302091 -14.645553 5.688224 20.499282 -22.716457 -65.354637 47.333237 80.901311 26.395509 19.633834 49.431542 -0.417041 -7.562398 0.918983 -5.313318 5.983435 -8.535980 0.016000 -18.449860 3.371613 -2.109306 -6.310365 8.308563 -12.769730 2.350788 12.584841 10.331340 -0.456104 -21.154593 -4.190792 -19.927781 2.017987 1.883186 -0.501269 1.026396
38.946268 84.695046 5.491924 56.536000 27.340876 -2.807797 0.055375 -3.548153 1.876464 0.017489 -1.650143 0.646657 0.017489 -1.650143 0.646657 0.014862 -1.237590 0.485007 -1.778872 6.189111 0.324683 -3.759912 -24.655369 1.620049 1.661033 5.076436 5.412410 4.299307 21.132720 15.665613 89.910543 53.471154 -25.262629 -10.345360 -1.847595 -79.613008 -17.165130 11.325247 -14.757041 5.495761 20.516595 -22.778824 -65.138329 47.397245 81.178335 26.351234 19.656429 49.492435 -0.354300 -7.650968 0.853589 -5.384345 6.023184 -8.597239 -0.055167 -18.503538 3.338511 -2.073094 -6.297874 8.370397 -12.807812 2.253867 12.505025 10.288493 -0.487342 -21.147723 -4.111463 -19.983040 1.979397 1.808123 -0.454999 0.997245
38.962958 84.695242 5.465071 56.614976 27.393681 -2.704343 0.015343 -3.574633 1.821005 0.010162 -1.674585 0.638206 0.010162 -1.674585 0.638206 0.009370 -1.255930 0.478648 -1.817715 6.226918 0.354435 -3.852532 -24.582706 1.699185 1.531443 5.190836 5.420270 4.305605 20.804646 15.564329 90.340102 53.420425 -24.767035 -10.339886 -1.845219 -79.649593 -17.140100 11.346373 -14.861341 5.264817 20.652037 -22.767100 -64.816423 47.300951 81.433017 26.317223 19.670164 49.524000 -0.270273 -7.698141 0.754972 -5.486791 6.033950 -8.614466 -0.060536 -18.544563 3.310417 -2.059544 -6.272998 8.411452 -12.816068 2.186628 12.403858 10.269029 -0.508056 -21.117867 -4.064411 -20.041776 1.931618 1.753616 -0.404870 0.973310
38.971170 84.698249 5.435661 56.698632 27.362656 -2.607095 -0.016834 -3.585219 1.783933 0.015181 -1.687845 0.632986 0.015181 -1.687845 0.632986 0.013134 -1.265870 0.474747 -1.858207 6.312240 0.370789 -3.938876 -24.422244 1.749792 1.488355 5.283560 5.441353 4.422351 20.803789 15.555115 90.138401 53.411456 -24.878749 -10.341135 -1.850177 -79.657740 -17.108163 11.341800 -14.909381 5.048304 20.776003 -22.590580 -64.706792 47.049160 81.427778 26.288823 19.670454 49.546721 -0.195802 -7.663053 0.661084 -5.590154 6.040365 -8.617563 -0.076997 -18.577662 3.288675 -2.035989 -6.247259 8.443906 -12.818067 2.184915 12.298810 10.253358 -0.504661 -21.085505 -4.034297 -20.103733 1.874977 1.711752 -0.357495 0.952987
38.958696 84.711401 5.406402 56.839713 27.267469 -2.486864 -0.055729 -3.618815 1.762025 0.019943 -1.694994 0.624340 0.019943 -1.694994 0.624340 0.016688 -1.271227 0.468276 -1.894961 6.438158 0.375898 -4.009545 -24.186979 1.773566 1.458162 5.339337 5.467047 4.666859 20.965283 15.567769 89.616792 53.387602 -25.208510 -10.348777 -1.868503 -79.641990 -17.132857 11.434666 -14.964623 4.753869 20.667908 -22.409586 -64.690728 46.811266 81.151828 26.233856 19.696082 49.575206 -0.166650 -7.579256 0.586520 -5.659854 6.065240 -8.631818 -0.140093 -18.600478 3.270130 -1.991863 -6.228812 8.471330 -12.883621 2.220616 12.207401 10.257823 -0.468364 -21.067568 -4.016745 -20.145564 1.809059 1.684092 -0.329377 0.937118
38.922811 84.735124 5.369802 57.019034 27.137786 -2.340495 -0.099165 -3.666547 1.727789 0.028910 -1.703105 0.609596 0.028910 -1.703105 0.609596 0.023380 -1.277302 0.457244 -1.923137 6.598077 0.376426 -4.058763 -23.889086 1.781675 1.512598 5.352397 5.526532 4.923620 21.088249 15.596298 89.006928 53.366014 -25.448136 -10.359667 -1.923340 -79.593689 -17.202694 11.512257 -15.014855 4.353915 20.766374 -22.142660 -64.476587 46.378899 81.032116 26.193526 19.707950 49.594088 -0.214909 -7.475014 0.520416 -5.693773 6.093488 -8.655054 -0.204457 -18.618368 3.254519 -1.934642 -6.201893 8.494049 -13.020764 2.259869 12.104968 10.310768 -0.396459 -21.047339 -3.988354 -20.178566 1.743772 1.645369 -0.307769 0.909982
38.863411 84.767580 5.326188 57.219262 26.942642 -2.167960 -0.128366 -3.715681 1.663434 0.050064 -1.714910 0.586561 0.050064 -1.714910 0.586561 0.039192 -1.286136 0.440028 -1.954269 6.791100 0.389862 -4.119037 -23.529100 1.815378 1.592328 5.428791 5.633233 5.139796 21.006130 15.570437 88.567571 53.283963 -25.405231 -10.364911 -1.961028 -79.546232 -17.301405 11.575500 -15.053996 3.923440 20.728009 -21.634489 -64.484121 45.805561 80.468820 26.141292 19.737381 49.605355 -0.340927 -7.317354 0.468918 -5.706537 6.115245 -8.701860 -0.376671 -18.607086 3.233187 -1.759054 -6.176012 8.566999 -13.248500 2.342608 11.958062 10.413255 -0.311038 -21.004751 -3.807777 -20.237074 1.695112 1.481799 -0.258582 0.820126
38.775117 84.810727 5.279138 57.377002 26.665126 -2.029885 -0.145339 -3.766185 1.619895 0.076976 -1.725555 0.571386 0.076976 -1.725555 0.571386 0.059341 -1.294096 0.428725 -1.965677 7.018080 0.404044 -4.138431 -23.106784 1.838238 1.685217 5.653451 5.719883 5.522372 20.891292 15.552221 87.888313 53.148529 -25.523346 -10.367755 -1.984751 -79.462842 -17.423295 11.660466 -15.117571 3.455712 20.485742 -21.078426 -64.667343 45.208394 79.533556 26.097196 19.837891 49.621452 -0.481405 -7.109090 0.450159 -5.706528 6.143829 -8.761212 -0.432933 -18.604938 3.231057 -1.677809 -6.118619 8.592209 -13.493016 2.489411 11.816868 10.541731 -0.215275 -20.960633 -3.710230 -20.261779 1.653280 1.411018 -0.233660 0.761477
38.667479 84.865333 5.217322 57.475961 26.304523 -1.905415 -0.125708 -3.786135 1.563768 0.103765 -1.723427 0.562103 0.103765 -1.723427 0.562103 0.079404 -1.292476 0.421838 -1.961026 7.268170 0.419339 -4.125224 -22.642132 1.853723 1.856694 5.757221 5.814478 6.010912 20.686727 15.563856 87.206894 52.964227 -25.407487 -10.351775 -1.990829 -79.352000 -17.562559 11.782731 -15.171142 2.955493 20.293233 -20.535315 -64.661076 44.517078 78.759599 26.059585 19.882793 49.608439 -0.588731 -6.845969 0.400600 -5.689728 6.174565 -8.795679 -0.474319 -18.581667 3.229859 -1.614451 -6.047670 8.607928 -13.727277 2.694843 11.622627 10.691953 -0.108124 -20.885096 -3.590042 -20.287665 1.627739 1.320665 -0.206001 0.686863
38.547462 84.930745 5.139776 57.546478 25.854957 -1.804410 -0.064907 -3.794769 1.497158 0.135031 -1.725943 0.549993 0.135031 -1.725943 0.549993 0.102819 -1.294337 0.412845 -1.972705 7.570875 0.449772 -4.149804 -22.078568 1.905079 1.964659 5.983046 5.918552 6.736377 20.391673 15.665498 86.303474 52.798697 -25.322913 -10.330400 -2.005708 -79.221006 -17.736965 12.018708 -15.210708 2.366400 20.130580 -19.934475 -64.605931 43.680157 77.994087 25.980225 19.940661 49.596621 -0.701579 -6.502544 0.349084 -5.678048 6.179476 -8.809937 -0.497302 -18.515024 3.234964 -1.552451 -5.978394 8.618072 -13.959712 2.977545 11.395348 10.866313 -0.002508 -20.775901 -3.475302 -20.306972 1.609466 1.230617 -0.174467 0.607160
